<?xml version="1.0" encoding="UTF-8"?>
<svg id="Layer_2" data-name="Layer 2" xmlns="http://www.w3.org/2000/svg" viewBox="0 0 4156.21 4144.05">
  <defs>
    <style>
      .cls-1 {
        fill: #fff;
      }

      .cls-2 {
        fill: #fd7722;
      }
    </style>
  </defs>
  <g id="Camada_1" data-name="Camada 1">
    <g>
      <path class="cls-2" d="M2526.33,4127.28C1193.35,4206.48,100.31,4058.82,14.68,2491.48-67.52,985.95,150.96,81.56,1827.32,7.09c1066.64-47.43,2097.87,115.25,2267.42,1354.44,181.99,1330.4,42.28,2670.04-1568.41,2765.76Z"/>
      <path class="cls-1" d="M1080.27,1409.07c0,194.05,289.85,192.14,289.85,192.14-340.78,14.77-285.48,119.05-285.48,1388.04h285.49v-1834.45h-285.49s-4.37,154.94-4.37,254.28Z"/>
      <path class="cls-1" d="M3221.05,1157.82h-1684.02v1.86c0,135.83,110.11,245.95,245.95,245.95h1055.23l-1183.27,1224.78c-75.63,78.28-117.91,182.88-117.91,291.73h0c0,38.74,31.4,70.14,70.13,70.14h1613.88v-124.04c0-68.51-55.54-124.04-124.04-124.04h-1185.93l1142.95-1175.1c107.1-110.11,167.02-257.66,167.02-411.27Z"/>
    </g>
  </g>
</svg>